<mxfile host="app.diagrams.net" modified="2023-08-22T19:45:36.633Z" agent="Mozilla/5.0 (Windows NT 10.0; Win64; x64) AppleWebKit/537.36 (KHTML, like Gecko) Chrome/116.0.0.0 Safari/537.36" etag="eBoDxsjYafKmTelgbRp6" version="21.6.8" type="device">
  <diagram id="C5RBs43oDa-KdzZeNtuy" name="Page-1">
    <mxGraphModel dx="2327" dy="1989" grid="1" gridSize="10" guides="1" tooltips="1" connect="1" arrows="1" fold="1" page="1" pageScale="1" pageWidth="827" pageHeight="1169" math="0" shadow="0">
      <root>
        <mxCell id="WIyWlLk6GJQsqaUBKTNV-0" />
        <mxCell id="WIyWlLk6GJQsqaUBKTNV-1" parent="WIyWlLk6GJQsqaUBKTNV-0" />
        <mxCell id="SdJrZux0mWgbVIu5cbB4-0" value="Product" style="swimlane;fontStyle=0;childLayout=stackLayout;horizontal=1;startSize=30;horizontalStack=0;resizeParent=1;resizeParentMax=0;resizeLast=0;collapsible=1;marginBottom=0;whiteSpace=wrap;html=1;" vertex="1" parent="WIyWlLk6GJQsqaUBKTNV-1">
          <mxGeometry x="1010" y="-360" width="170" height="180" as="geometry" />
        </mxCell>
        <mxCell id="SdJrZux0mWgbVIu5cbB4-1" value="Id" style="text;strokeColor=none;fillColor=none;align=left;verticalAlign=middle;spacingLeft=4;spacingRight=4;overflow=hidden;points=[[0,0.5],[1,0.5]];portConstraint=eastwest;rotatable=0;whiteSpace=wrap;html=1;" vertex="1" parent="SdJrZux0mWgbVIu5cbB4-0">
          <mxGeometry y="30" width="170" height="30" as="geometry" />
        </mxCell>
        <mxCell id="SdJrZux0mWgbVIu5cbB4-2" value="Name" style="text;strokeColor=none;fillColor=none;align=left;verticalAlign=middle;spacingLeft=4;spacingRight=4;overflow=hidden;points=[[0,0.5],[1,0.5]];portConstraint=eastwest;rotatable=0;whiteSpace=wrap;html=1;" vertex="1" parent="SdJrZux0mWgbVIu5cbB4-0">
          <mxGeometry y="60" width="170" height="30" as="geometry" />
        </mxCell>
        <mxCell id="SdJrZux0mWgbVIu5cbB4-5" value="Price" style="text;strokeColor=none;align=left;fillColor=none;html=1;verticalAlign=middle;whiteSpace=wrap;rounded=0;" vertex="1" parent="SdJrZux0mWgbVIu5cbB4-0">
          <mxGeometry y="90" width="170" height="30" as="geometry" />
        </mxCell>
        <mxCell id="SdJrZux0mWgbVIu5cbB4-4" value="Quantity" style="text;strokeColor=none;align=left;fillColor=none;html=1;verticalAlign=middle;whiteSpace=wrap;rounded=0;" vertex="1" parent="SdJrZux0mWgbVIu5cbB4-0">
          <mxGeometry y="120" width="170" height="30" as="geometry" />
        </mxCell>
        <mxCell id="SdJrZux0mWgbVIu5cbB4-3" value="Description" style="text;strokeColor=none;fillColor=none;align=left;verticalAlign=middle;spacingLeft=4;spacingRight=4;overflow=hidden;points=[[0,0.5],[1,0.5]];portConstraint=eastwest;rotatable=0;whiteSpace=wrap;html=1;" vertex="1" parent="SdJrZux0mWgbVIu5cbB4-0">
          <mxGeometry y="150" width="170" height="30" as="geometry" />
        </mxCell>
        <mxCell id="SdJrZux0mWgbVIu5cbB4-7" value="CartItem" style="swimlane;fontStyle=0;childLayout=stackLayout;horizontal=1;startSize=30;horizontalStack=0;resizeParent=1;resizeParentMax=0;resizeLast=0;collapsible=1;marginBottom=0;whiteSpace=wrap;html=1;" vertex="1" parent="WIyWlLk6GJQsqaUBKTNV-1">
          <mxGeometry x="1120" y="130" width="140" height="120" as="geometry" />
        </mxCell>
        <mxCell id="SdJrZux0mWgbVIu5cbB4-8" value="Id" style="text;strokeColor=none;fillColor=none;align=left;verticalAlign=middle;spacingLeft=4;spacingRight=4;overflow=hidden;points=[[0,0.5],[1,0.5]];portConstraint=eastwest;rotatable=0;whiteSpace=wrap;html=1;" vertex="1" parent="SdJrZux0mWgbVIu5cbB4-7">
          <mxGeometry y="30" width="140" height="30" as="geometry" />
        </mxCell>
        <mxCell id="SdJrZux0mWgbVIu5cbB4-9" value="ProductID" style="text;strokeColor=none;fillColor=none;align=left;verticalAlign=middle;spacingLeft=4;spacingRight=4;overflow=hidden;points=[[0,0.5],[1,0.5]];portConstraint=eastwest;rotatable=0;whiteSpace=wrap;html=1;" vertex="1" parent="SdJrZux0mWgbVIu5cbB4-7">
          <mxGeometry y="60" width="140" height="30" as="geometry" />
        </mxCell>
        <mxCell id="SdJrZux0mWgbVIu5cbB4-10" value="Quantity" style="text;strokeColor=none;fillColor=none;align=left;verticalAlign=middle;spacingLeft=4;spacingRight=4;overflow=hidden;points=[[0,0.5],[1,0.5]];portConstraint=eastwest;rotatable=0;whiteSpace=wrap;html=1;" vertex="1" parent="SdJrZux0mWgbVIu5cbB4-7">
          <mxGeometry y="90" width="140" height="30" as="geometry" />
        </mxCell>
        <mxCell id="SdJrZux0mWgbVIu5cbB4-11" value="Role" style="swimlane;fontStyle=0;childLayout=stackLayout;horizontal=1;startSize=30;horizontalStack=0;resizeParent=1;resizeParentMax=0;resizeLast=0;collapsible=1;marginBottom=0;whiteSpace=wrap;html=1;" vertex="1" parent="WIyWlLk6GJQsqaUBKTNV-1">
          <mxGeometry x="990" y="-120" width="140" height="150" as="geometry" />
        </mxCell>
        <mxCell id="SdJrZux0mWgbVIu5cbB4-12" value="Admin" style="text;strokeColor=none;fillColor=none;align=left;verticalAlign=middle;spacingLeft=4;spacingRight=4;overflow=hidden;points=[[0,0.5],[1,0.5]];portConstraint=eastwest;rotatable=0;whiteSpace=wrap;html=1;" vertex="1" parent="SdJrZux0mWgbVIu5cbB4-11">
          <mxGeometry y="30" width="140" height="30" as="geometry" />
        </mxCell>
        <mxCell id="SdJrZux0mWgbVIu5cbB4-13" value="Client" style="text;strokeColor=none;fillColor=none;align=left;verticalAlign=middle;spacingLeft=4;spacingRight=4;overflow=hidden;points=[[0,0.5],[1,0.5]];portConstraint=eastwest;rotatable=0;whiteSpace=wrap;html=1;" vertex="1" parent="SdJrZux0mWgbVIu5cbB4-11">
          <mxGeometry y="60" width="140" height="30" as="geometry" />
        </mxCell>
        <mxCell id="SdJrZux0mWgbVIu5cbB4-15" value="None" style="text;html=1;align=left;verticalAlign=middle;resizable=0;points=[];autosize=1;strokeColor=none;fillColor=none;" vertex="1" parent="SdJrZux0mWgbVIu5cbB4-11">
          <mxGeometry y="90" width="140" height="30" as="geometry" />
        </mxCell>
        <mxCell id="SdJrZux0mWgbVIu5cbB4-14" value="Operator" style="text;strokeColor=none;fillColor=none;align=left;verticalAlign=middle;spacingLeft=4;spacingRight=4;overflow=hidden;points=[[0,0.5],[1,0.5]];portConstraint=eastwest;rotatable=0;whiteSpace=wrap;html=1;" vertex="1" parent="SdJrZux0mWgbVIu5cbB4-11">
          <mxGeometry y="120" width="140" height="30" as="geometry" />
        </mxCell>
        <mxCell id="SdJrZux0mWgbVIu5cbB4-16" value="IProductDatabase" style="swimlane;fontStyle=0;childLayout=stackLayout;horizontal=1;startSize=30;horizontalStack=0;resizeParent=1;resizeParentMax=0;resizeLast=0;collapsible=1;marginBottom=0;whiteSpace=wrap;html=1;" vertex="1" parent="WIyWlLk6GJQsqaUBKTNV-1">
          <mxGeometry x="260" y="160" width="140" height="180" as="geometry" />
        </mxCell>
        <mxCell id="SdJrZux0mWgbVIu5cbB4-17" value="AddProduct" style="text;strokeColor=none;fillColor=none;align=left;verticalAlign=middle;spacingLeft=4;spacingRight=4;overflow=hidden;points=[[0,0.5],[1,0.5]];portConstraint=eastwest;rotatable=0;whiteSpace=wrap;html=1;" vertex="1" parent="SdJrZux0mWgbVIu5cbB4-16">
          <mxGeometry y="30" width="140" height="30" as="geometry" />
        </mxCell>
        <mxCell id="SdJrZux0mWgbVIu5cbB4-18" value="RemoveProduct" style="text;strokeColor=none;fillColor=none;align=left;verticalAlign=middle;spacingLeft=4;spacingRight=4;overflow=hidden;points=[[0,0.5],[1,0.5]];portConstraint=eastwest;rotatable=0;whiteSpace=wrap;html=1;" vertex="1" parent="SdJrZux0mWgbVIu5cbB4-16">
          <mxGeometry y="60" width="140" height="30" as="geometry" />
        </mxCell>
        <mxCell id="SdJrZux0mWgbVIu5cbB4-20" value="Search" style="text;html=1;align=left;verticalAlign=middle;resizable=0;points=[];autosize=1;strokeColor=none;fillColor=none;" vertex="1" parent="SdJrZux0mWgbVIu5cbB4-16">
          <mxGeometry y="90" width="140" height="30" as="geometry" />
        </mxCell>
        <mxCell id="SdJrZux0mWgbVIu5cbB4-21" value="ListProduct" style="text;html=1;align=left;verticalAlign=middle;resizable=0;points=[];autosize=1;strokeColor=none;fillColor=none;" vertex="1" parent="SdJrZux0mWgbVIu5cbB4-16">
          <mxGeometry y="120" width="140" height="30" as="geometry" />
        </mxCell>
        <mxCell id="SdJrZux0mWgbVIu5cbB4-19" value="EditProduct" style="text;strokeColor=none;fillColor=none;align=left;verticalAlign=middle;spacingLeft=4;spacingRight=4;overflow=hidden;points=[[0,0.5],[1,0.5]];portConstraint=eastwest;rotatable=0;whiteSpace=wrap;html=1;" vertex="1" parent="SdJrZux0mWgbVIu5cbB4-16">
          <mxGeometry y="150" width="140" height="30" as="geometry" />
        </mxCell>
        <mxCell id="SdJrZux0mWgbVIu5cbB4-22" value="ICartDatabase" style="swimlane;fontStyle=0;childLayout=stackLayout;horizontal=1;startSize=30;horizontalStack=0;resizeParent=1;resizeParentMax=0;resizeLast=0;collapsible=1;marginBottom=0;whiteSpace=wrap;html=1;" vertex="1" parent="WIyWlLk6GJQsqaUBKTNV-1">
          <mxGeometry x="590" y="120" width="140" height="210" as="geometry" />
        </mxCell>
        <mxCell id="SdJrZux0mWgbVIu5cbB4-23" value="AddItem" style="text;strokeColor=none;fillColor=none;align=left;verticalAlign=middle;spacingLeft=4;spacingRight=4;overflow=hidden;points=[[0,0.5],[1,0.5]];portConstraint=eastwest;rotatable=0;whiteSpace=wrap;html=1;" vertex="1" parent="SdJrZux0mWgbVIu5cbB4-22">
          <mxGeometry y="30" width="140" height="30" as="geometry" />
        </mxCell>
        <mxCell id="SdJrZux0mWgbVIu5cbB4-24" value="RemoveItem" style="text;strokeColor=none;fillColor=none;align=left;verticalAlign=middle;spacingLeft=4;spacingRight=4;overflow=hidden;points=[[0,0.5],[1,0.5]];portConstraint=eastwest;rotatable=0;whiteSpace=wrap;html=1;" vertex="1" parent="SdJrZux0mWgbVIu5cbB4-22">
          <mxGeometry y="60" width="140" height="30" as="geometry" />
        </mxCell>
        <mxCell id="SdJrZux0mWgbVIu5cbB4-25" value="Search" style="text;html=1;align=left;verticalAlign=middle;resizable=0;points=[];autosize=1;strokeColor=none;fillColor=none;" vertex="1" parent="SdJrZux0mWgbVIu5cbB4-22">
          <mxGeometry y="90" width="140" height="30" as="geometry" />
        </mxCell>
        <mxCell id="SdJrZux0mWgbVIu5cbB4-45" value="Check out" style="text;html=1;align=left;verticalAlign=middle;resizable=0;points=[];autosize=1;strokeColor=none;fillColor=none;" vertex="1" parent="SdJrZux0mWgbVIu5cbB4-22">
          <mxGeometry y="120" width="140" height="30" as="geometry" />
        </mxCell>
        <mxCell id="SdJrZux0mWgbVIu5cbB4-26" value="ListProduct" style="text;html=1;align=left;verticalAlign=middle;resizable=0;points=[];autosize=1;strokeColor=none;fillColor=none;" vertex="1" parent="SdJrZux0mWgbVIu5cbB4-22">
          <mxGeometry y="150" width="140" height="30" as="geometry" />
        </mxCell>
        <mxCell id="SdJrZux0mWgbVIu5cbB4-27" value="EditItem" style="text;strokeColor=none;fillColor=none;align=left;verticalAlign=middle;spacingLeft=4;spacingRight=4;overflow=hidden;points=[[0,0.5],[1,0.5]];portConstraint=eastwest;rotatable=0;whiteSpace=wrap;html=1;" vertex="1" parent="SdJrZux0mWgbVIu5cbB4-22">
          <mxGeometry y="180" width="140" height="30" as="geometry" />
        </mxCell>
        <mxCell id="SdJrZux0mWgbVIu5cbB4-32" value="ProductDatabase" style="swimlane;fontStyle=0;childLayout=stackLayout;horizontal=1;startSize=30;horizontalStack=0;resizeParent=1;resizeParentMax=0;resizeLast=0;collapsible=1;marginBottom=0;whiteSpace=wrap;html=1;" vertex="1" parent="WIyWlLk6GJQsqaUBKTNV-1">
          <mxGeometry x="260" y="390" width="140" height="60" as="geometry" />
        </mxCell>
        <mxCell id="SdJrZux0mWgbVIu5cbB4-36" value="CartDatabase" style="swimlane;fontStyle=0;childLayout=stackLayout;horizontal=1;startSize=30;horizontalStack=0;resizeParent=1;resizeParentMax=0;resizeLast=0;collapsible=1;marginBottom=0;whiteSpace=wrap;html=1;" vertex="1" parent="WIyWlLk6GJQsqaUBKTNV-1">
          <mxGeometry x="590" y="400" width="140" height="60" as="geometry" />
        </mxCell>
        <mxCell id="SdJrZux0mWgbVIu5cbB4-37" value="ICommandHandler" style="swimlane;fontStyle=0;childLayout=stackLayout;horizontal=1;startSize=30;horizontalStack=0;resizeParent=1;resizeParentMax=0;resizeLast=0;collapsible=1;marginBottom=0;whiteSpace=wrap;html=1;" vertex="1" parent="WIyWlLk6GJQsqaUBKTNV-1">
          <mxGeometry x="350" y="700" width="140" height="120" as="geometry" />
        </mxCell>
        <mxCell id="SdJrZux0mWgbVIu5cbB4-38" value="Execute" style="text;strokeColor=none;fillColor=none;align=left;verticalAlign=middle;spacingLeft=4;spacingRight=4;overflow=hidden;points=[[0,0.5],[1,0.5]];portConstraint=eastwest;rotatable=0;whiteSpace=wrap;html=1;" vertex="1" parent="SdJrZux0mWgbVIu5cbB4-37">
          <mxGeometry y="30" width="140" height="30" as="geometry" />
        </mxCell>
        <mxCell id="SdJrZux0mWgbVIu5cbB4-39" value="GetName" style="text;strokeColor=none;fillColor=none;align=left;verticalAlign=middle;spacingLeft=4;spacingRight=4;overflow=hidden;points=[[0,0.5],[1,0.5]];portConstraint=eastwest;rotatable=0;whiteSpace=wrap;html=1;" vertex="1" parent="SdJrZux0mWgbVIu5cbB4-37">
          <mxGeometry y="60" width="140" height="30" as="geometry" />
        </mxCell>
        <mxCell id="SdJrZux0mWgbVIu5cbB4-40" value="GetHelp()" style="text;strokeColor=none;fillColor=none;align=left;verticalAlign=middle;spacingLeft=4;spacingRight=4;overflow=hidden;points=[[0,0.5],[1,0.5]];portConstraint=eastwest;rotatable=0;whiteSpace=wrap;html=1;" vertex="1" parent="SdJrZux0mWgbVIu5cbB4-37">
          <mxGeometry y="90" width="140" height="30" as="geometry" />
        </mxCell>
        <mxCell id="SdJrZux0mWgbVIu5cbB4-41" value="AddProduct" style="swimlane;fontStyle=0;childLayout=stackLayout;horizontal=1;startSize=30;horizontalStack=0;resizeParent=1;resizeParentMax=0;resizeLast=0;collapsible=1;marginBottom=0;whiteSpace=wrap;html=1;" vertex="1" parent="WIyWlLk6GJQsqaUBKTNV-1">
          <mxGeometry x="65" y="770" width="140" height="60" as="geometry" />
        </mxCell>
        <mxCell id="SdJrZux0mWgbVIu5cbB4-42" value="AddItem" style="swimlane;fontStyle=0;childLayout=stackLayout;horizontal=1;startSize=30;horizontalStack=0;resizeParent=1;resizeParentMax=0;resizeLast=0;collapsible=1;marginBottom=0;whiteSpace=wrap;html=1;" vertex="1" parent="WIyWlLk6GJQsqaUBKTNV-1">
          <mxGeometry x="630" y="630" width="140" height="60" as="geometry" />
        </mxCell>
        <mxCell id="SdJrZux0mWgbVIu5cbB4-43" value="RemoveItem" style="swimlane;fontStyle=0;childLayout=stackLayout;horizontal=1;startSize=30;horizontalStack=0;resizeParent=1;resizeParentMax=0;resizeLast=0;collapsible=1;marginBottom=0;whiteSpace=wrap;html=1;" vertex="1" parent="WIyWlLk6GJQsqaUBKTNV-1">
          <mxGeometry x="630" y="720" width="140" height="60" as="geometry" />
        </mxCell>
        <mxCell id="SdJrZux0mWgbVIu5cbB4-44" value="RemoveProduct" style="swimlane;fontStyle=0;childLayout=stackLayout;horizontal=1;startSize=30;horizontalStack=0;resizeParent=1;resizeParentMax=0;resizeLast=0;collapsible=1;marginBottom=0;whiteSpace=wrap;html=1;" vertex="1" parent="WIyWlLk6GJQsqaUBKTNV-1">
          <mxGeometry x="65" y="850" width="140" height="60" as="geometry" />
        </mxCell>
        <mxCell id="SdJrZux0mWgbVIu5cbB4-46" value="EditProduct" style="swimlane;fontStyle=0;childLayout=stackLayout;horizontal=1;startSize=30;horizontalStack=0;resizeParent=1;resizeParentMax=0;resizeLast=0;collapsible=1;marginBottom=0;whiteSpace=wrap;html=1;" vertex="1" parent="WIyWlLk6GJQsqaUBKTNV-1">
          <mxGeometry x="80" y="960" width="140" height="60" as="geometry" />
        </mxCell>
        <mxCell id="SdJrZux0mWgbVIu5cbB4-47" value="EditItem" style="swimlane;fontStyle=0;childLayout=stackLayout;horizontal=1;startSize=30;horizontalStack=0;resizeParent=1;resizeParentMax=0;resizeLast=0;collapsible=1;marginBottom=0;whiteSpace=wrap;html=1;" vertex="1" parent="WIyWlLk6GJQsqaUBKTNV-1">
          <mxGeometry x="630" y="800" width="140" height="60" as="geometry" />
        </mxCell>
        <mxCell id="SdJrZux0mWgbVIu5cbB4-48" value="ListProduct" style="swimlane;fontStyle=0;childLayout=stackLayout;horizontal=1;startSize=30;horizontalStack=0;resizeParent=1;resizeParentMax=0;resizeLast=0;collapsible=1;marginBottom=0;whiteSpace=wrap;html=1;" vertex="1" parent="WIyWlLk6GJQsqaUBKTNV-1">
          <mxGeometry x="270" y="960" width="140" height="60" as="geometry" />
        </mxCell>
        <mxCell id="SdJrZux0mWgbVIu5cbB4-49" value="Search" style="swimlane;fontStyle=0;childLayout=stackLayout;horizontal=1;startSize=30;horizontalStack=0;resizeParent=1;resizeParentMax=0;resizeLast=0;collapsible=1;marginBottom=0;whiteSpace=wrap;html=1;" vertex="1" parent="WIyWlLk6GJQsqaUBKTNV-1">
          <mxGeometry x="450" y="960" width="140" height="60" as="geometry" />
        </mxCell>
        <mxCell id="SdJrZux0mWgbVIu5cbB4-50" value="Check Out" style="swimlane;fontStyle=0;childLayout=stackLayout;horizontal=1;startSize=30;horizontalStack=0;resizeParent=1;resizeParentMax=0;resizeLast=0;collapsible=1;marginBottom=0;whiteSpace=wrap;html=1;" vertex="1" parent="WIyWlLk6GJQsqaUBKTNV-1">
          <mxGeometry x="630" y="890" width="140" height="60" as="geometry" />
        </mxCell>
        <mxCell id="SdJrZux0mWgbVIu5cbB4-140" style="edgeStyle=orthogonalEdgeStyle;rounded=0;orthogonalLoop=1;jettySize=auto;html=1;" edge="1" parent="WIyWlLk6GJQsqaUBKTNV-1" source="SdJrZux0mWgbVIu5cbB4-51" target="SdJrZux0mWgbVIu5cbB4-55">
          <mxGeometry relative="1" as="geometry">
            <mxPoint x="330" y="-330" as="targetPoint" />
            <Array as="points">
              <mxPoint x="390" y="-420" />
              <mxPoint x="120" y="-420" />
            </Array>
          </mxGeometry>
        </mxCell>
        <mxCell id="SdJrZux0mWgbVIu5cbB4-141" style="edgeStyle=orthogonalEdgeStyle;rounded=0;orthogonalLoop=1;jettySize=auto;html=1;" edge="1" parent="WIyWlLk6GJQsqaUBKTNV-1" source="SdJrZux0mWgbVIu5cbB4-51" target="SdJrZux0mWgbVIu5cbB4-89">
          <mxGeometry relative="1" as="geometry">
            <Array as="points">
              <mxPoint x="390" y="-420" />
            </Array>
          </mxGeometry>
        </mxCell>
        <mxCell id="SdJrZux0mWgbVIu5cbB4-51" value="Program" style="swimlane;fontStyle=0;childLayout=stackLayout;horizontal=1;startSize=30;horizontalStack=0;resizeParent=1;resizeParentMax=0;resizeLast=0;collapsible=1;marginBottom=0;whiteSpace=wrap;html=1;" vertex="1" parent="WIyWlLk6GJQsqaUBKTNV-1">
          <mxGeometry x="320" y="-570" width="140" height="60" as="geometry" />
        </mxCell>
        <mxCell id="SdJrZux0mWgbVIu5cbB4-55" value="Application" style="swimlane;fontStyle=0;childLayout=stackLayout;horizontal=1;startSize=30;horizontalStack=0;resizeParent=1;resizeParentMax=0;resizeLast=0;collapsible=1;marginBottom=0;whiteSpace=wrap;html=1;" vertex="1" parent="WIyWlLk6GJQsqaUBKTNV-1">
          <mxGeometry x="50" y="-310" width="140" height="60" as="geometry" />
        </mxCell>
        <mxCell id="SdJrZux0mWgbVIu5cbB4-59" value="IApplication" style="swimlane;fontStyle=0;childLayout=stackLayout;horizontal=1;startSize=30;horizontalStack=0;resizeParent=1;resizeParentMax=0;resizeLast=0;collapsible=1;marginBottom=0;whiteSpace=wrap;html=1;" vertex="1" parent="WIyWlLk6GJQsqaUBKTNV-1">
          <mxGeometry x="-130" y="-370" width="140" height="180" as="geometry" />
        </mxCell>
        <mxCell id="SdJrZux0mWgbVIu5cbB4-79" value="Run()" style="text;html=1;align=center;verticalAlign=middle;resizable=0;points=[];autosize=1;strokeColor=none;fillColor=none;" vertex="1" parent="SdJrZux0mWgbVIu5cbB4-59">
          <mxGeometry y="30" width="140" height="30" as="geometry" />
        </mxCell>
        <mxCell id="SdJrZux0mWgbVIu5cbB4-97" value="IProductDatabase" style="text;html=1;align=center;verticalAlign=middle;resizable=0;points=[];autosize=1;strokeColor=none;fillColor=none;" vertex="1" parent="SdJrZux0mWgbVIu5cbB4-59">
          <mxGeometry y="60" width="140" height="30" as="geometry" />
        </mxCell>
        <mxCell id="SdJrZux0mWgbVIu5cbB4-98" value="ICartItemDatabase" style="text;html=1;align=center;verticalAlign=middle;resizable=0;points=[];autosize=1;strokeColor=none;fillColor=none;" vertex="1" parent="SdJrZux0mWgbVIu5cbB4-59">
          <mxGeometry y="90" width="140" height="30" as="geometry" />
        </mxCell>
        <mxCell id="SdJrZux0mWgbVIu5cbB4-99" value="UserRole" style="text;html=1;align=center;verticalAlign=middle;resizable=0;points=[];autosize=1;strokeColor=none;fillColor=none;" vertex="1" parent="SdJrZux0mWgbVIu5cbB4-59">
          <mxGeometry y="120" width="140" height="30" as="geometry" />
        </mxCell>
        <mxCell id="SdJrZux0mWgbVIu5cbB4-80" value="Exit()" style="text;html=1;align=center;verticalAlign=middle;resizable=0;points=[];autosize=1;strokeColor=none;fillColor=none;" vertex="1" parent="SdJrZux0mWgbVIu5cbB4-59">
          <mxGeometry y="150" width="140" height="30" as="geometry" />
        </mxCell>
        <mxCell id="SdJrZux0mWgbVIu5cbB4-63" value="Server" style="swimlane;fontStyle=0;childLayout=stackLayout;horizontal=1;startSize=30;horizontalStack=0;resizeParent=1;resizeParentMax=0;resizeLast=0;collapsible=1;marginBottom=0;whiteSpace=wrap;html=1;" vertex="1" parent="WIyWlLk6GJQsqaUBKTNV-1">
          <mxGeometry x="460" y="-350" width="140" height="60" as="geometry" />
        </mxCell>
        <mxCell id="SdJrZux0mWgbVIu5cbB4-67" value="ClientHandler" style="swimlane;fontStyle=0;childLayout=stackLayout;horizontal=1;startSize=30;horizontalStack=0;resizeParent=1;resizeParentMax=0;resizeLast=0;collapsible=1;marginBottom=0;whiteSpace=wrap;html=1;" vertex="1" parent="WIyWlLk6GJQsqaUBKTNV-1">
          <mxGeometry x="460" y="-260" width="140" height="60" as="geometry" />
        </mxCell>
        <mxCell id="SdJrZux0mWgbVIu5cbB4-71" value="BoardcastMessanger" style="swimlane;fontStyle=0;childLayout=stackLayout;horizontal=1;startSize=30;horizontalStack=0;resizeParent=1;resizeParentMax=0;resizeLast=0;collapsible=1;marginBottom=0;whiteSpace=wrap;html=1;" vertex="1" parent="WIyWlLk6GJQsqaUBKTNV-1">
          <mxGeometry x="460" y="-170" width="140" height="60" as="geometry" />
        </mxCell>
        <mxCell id="SdJrZux0mWgbVIu5cbB4-75" value="Notification" style="swimlane;fontStyle=0;childLayout=stackLayout;horizontal=1;startSize=30;horizontalStack=0;resizeParent=1;resizeParentMax=0;resizeLast=0;collapsible=1;marginBottom=0;whiteSpace=wrap;html=1;" vertex="1" parent="WIyWlLk6GJQsqaUBKTNV-1">
          <mxGeometry x="290" y="-170" width="140" height="60" as="geometry" />
        </mxCell>
        <mxCell id="SdJrZux0mWgbVIu5cbB4-81" value="Login" style="swimlane;fontStyle=0;childLayout=stackLayout;horizontal=1;startSize=30;horizontalStack=0;resizeParent=1;resizeParentMax=0;resizeLast=0;collapsible=1;marginBottom=0;whiteSpace=wrap;html=1;" vertex="1" parent="WIyWlLk6GJQsqaUBKTNV-1">
          <mxGeometry x="70" y="640" width="140" height="60" as="geometry" />
        </mxCell>
        <mxCell id="SdJrZux0mWgbVIu5cbB4-85" value="Help" style="swimlane;fontStyle=0;childLayout=stackLayout;horizontal=1;startSize=30;horizontalStack=0;resizeParent=1;resizeParentMax=0;resizeLast=0;collapsible=1;marginBottom=0;whiteSpace=wrap;html=1;" vertex="1" parent="WIyWlLk6GJQsqaUBKTNV-1">
          <mxGeometry x="460" y="590" width="140" height="60" as="geometry" />
        </mxCell>
        <mxCell id="SdJrZux0mWgbVIu5cbB4-89" value="Logger" style="swimlane;fontStyle=0;childLayout=stackLayout;horizontal=1;startSize=30;horizontalStack=0;resizeParent=1;resizeParentMax=0;resizeLast=0;collapsible=1;marginBottom=0;whiteSpace=wrap;html=1;" vertex="1" parent="WIyWlLk6GJQsqaUBKTNV-1">
          <mxGeometry x="660" y="-470" width="140" height="60" as="geometry" />
        </mxCell>
        <mxCell id="SdJrZux0mWgbVIu5cbB4-93" value="ClientProgram" style="swimlane;fontStyle=0;childLayout=stackLayout;horizontal=1;startSize=30;horizontalStack=0;resizeParent=1;resizeParentMax=0;resizeLast=0;collapsible=1;marginBottom=0;whiteSpace=wrap;html=1;" vertex="1" parent="WIyWlLk6GJQsqaUBKTNV-1">
          <mxGeometry x="20" y="-590" width="140" height="60" as="geometry" />
        </mxCell>
        <mxCell id="SdJrZux0mWgbVIu5cbB4-100" value="CommandArguments" style="swimlane;fontStyle=0;childLayout=stackLayout;horizontal=1;startSize=30;horizontalStack=0;resizeParent=1;resizeParentMax=0;resizeLast=0;collapsible=1;marginBottom=0;whiteSpace=wrap;html=1;" vertex="1" parent="WIyWlLk6GJQsqaUBKTNV-1">
          <mxGeometry x="55" y="520" width="140" height="90" as="geometry" />
        </mxCell>
        <mxCell id="SdJrZux0mWgbVIu5cbB4-101" value="List&amp;lt;object&amp;gt;" style="text;strokeColor=none;fillColor=none;align=left;verticalAlign=middle;spacingLeft=4;spacingRight=4;overflow=hidden;points=[[0,0.5],[1,0.5]];portConstraint=eastwest;rotatable=0;whiteSpace=wrap;html=1;" vertex="1" parent="SdJrZux0mWgbVIu5cbB4-100">
          <mxGeometry y="30" width="140" height="30" as="geometry" />
        </mxCell>
        <mxCell id="SdJrZux0mWgbVIu5cbB4-102" value="Item 2" style="text;strokeColor=none;fillColor=none;align=left;verticalAlign=middle;spacingLeft=4;spacingRight=4;overflow=hidden;points=[[0,0.5],[1,0.5]];portConstraint=eastwest;rotatable=0;whiteSpace=wrap;html=1;" vertex="1" parent="SdJrZux0mWgbVIu5cbB4-100">
          <mxGeometry y="60" width="140" height="30" as="geometry" />
        </mxCell>
        <mxCell id="SdJrZux0mWgbVIu5cbB4-104" value="ProtocolParser" style="swimlane;fontStyle=0;childLayout=stackLayout;horizontal=1;startSize=30;horizontalStack=0;resizeParent=1;resizeParentMax=0;resizeLast=0;collapsible=1;marginBottom=0;whiteSpace=wrap;html=1;" vertex="1" parent="WIyWlLk6GJQsqaUBKTNV-1">
          <mxGeometry x="700" y="-300" width="140" height="60" as="geometry" />
        </mxCell>
        <mxCell id="SdJrZux0mWgbVIu5cbB4-110" value="" style="endArrow=block;dashed=1;endFill=0;endSize=12;html=1;rounded=0;" edge="1" parent="WIyWlLk6GJQsqaUBKTNV-1" source="SdJrZux0mWgbVIu5cbB4-55" target="SdJrZux0mWgbVIu5cbB4-59">
          <mxGeometry width="160" relative="1" as="geometry">
            <mxPoint x="180" y="-240" as="sourcePoint" />
            <mxPoint x="340" y="-240" as="targetPoint" />
          </mxGeometry>
        </mxCell>
        <mxCell id="SdJrZux0mWgbVIu5cbB4-112" value="" style="endArrow=block;dashed=1;endFill=0;endSize=12;html=1;rounded=0;" edge="1" parent="WIyWlLk6GJQsqaUBKTNV-1" source="SdJrZux0mWgbVIu5cbB4-16" target="SdJrZux0mWgbVIu5cbB4-32">
          <mxGeometry width="160" relative="1" as="geometry">
            <mxPoint x="390" y="440" as="sourcePoint" />
            <mxPoint x="550" y="440" as="targetPoint" />
          </mxGeometry>
        </mxCell>
        <mxCell id="SdJrZux0mWgbVIu5cbB4-113" value="" style="endArrow=block;dashed=1;endFill=0;endSize=12;html=1;rounded=0;" edge="1" parent="WIyWlLk6GJQsqaUBKTNV-1" source="SdJrZux0mWgbVIu5cbB4-22" target="SdJrZux0mWgbVIu5cbB4-36">
          <mxGeometry width="160" relative="1" as="geometry">
            <mxPoint x="360" y="250" as="sourcePoint" />
            <mxPoint x="520" y="250" as="targetPoint" />
          </mxGeometry>
        </mxCell>
        <mxCell id="SdJrZux0mWgbVIu5cbB4-114" value="" style="endArrow=block;dashed=1;endFill=0;endSize=12;html=1;rounded=0;" edge="1" parent="WIyWlLk6GJQsqaUBKTNV-1" source="SdJrZux0mWgbVIu5cbB4-37" target="SdJrZux0mWgbVIu5cbB4-42">
          <mxGeometry width="160" relative="1" as="geometry">
            <mxPoint x="360" y="750" as="sourcePoint" />
            <mxPoint x="520" y="750" as="targetPoint" />
            <Array as="points">
              <mxPoint x="570" y="760" />
              <mxPoint x="570" y="660" />
            </Array>
          </mxGeometry>
        </mxCell>
        <mxCell id="SdJrZux0mWgbVIu5cbB4-115" value="" style="endArrow=block;dashed=1;endFill=0;endSize=12;html=1;rounded=0;" edge="1" parent="WIyWlLk6GJQsqaUBKTNV-1" source="SdJrZux0mWgbVIu5cbB4-37">
          <mxGeometry width="160" relative="1" as="geometry">
            <mxPoint x="490" y="700.5" as="sourcePoint" />
            <mxPoint x="630" y="760" as="targetPoint" />
            <Array as="points">
              <mxPoint x="560" y="760" />
            </Array>
          </mxGeometry>
        </mxCell>
        <mxCell id="SdJrZux0mWgbVIu5cbB4-116" value="" style="endArrow=block;dashed=1;endFill=0;endSize=12;html=1;rounded=0;entryX=0;entryY=0.167;entryDx=0;entryDy=0;entryPerimeter=0;" edge="1" parent="WIyWlLk6GJQsqaUBKTNV-1" source="SdJrZux0mWgbVIu5cbB4-37" target="SdJrZux0mWgbVIu5cbB4-47">
          <mxGeometry width="160" relative="1" as="geometry">
            <mxPoint x="500" y="810" as="sourcePoint" />
            <mxPoint x="568" y="850" as="targetPoint" />
            <Array as="points">
              <mxPoint x="490" y="810" />
              <mxPoint x="570" y="810" />
            </Array>
          </mxGeometry>
        </mxCell>
        <mxCell id="SdJrZux0mWgbVIu5cbB4-117" value="" style="endArrow=block;dashed=1;endFill=0;endSize=12;html=1;rounded=0;" edge="1" parent="WIyWlLk6GJQsqaUBKTNV-1" target="SdJrZux0mWgbVIu5cbB4-50">
          <mxGeometry width="160" relative="1" as="geometry">
            <mxPoint x="480" y="810" as="sourcePoint" />
            <mxPoint x="634" y="920" as="targetPoint" />
            <Array as="points">
              <mxPoint x="480" y="890" />
              <mxPoint x="594" y="890" />
              <mxPoint x="594" y="920" />
            </Array>
          </mxGeometry>
        </mxCell>
        <mxCell id="SdJrZux0mWgbVIu5cbB4-118" value="" style="endArrow=block;dashed=1;endFill=0;endSize=12;html=1;rounded=0;" edge="1" parent="WIyWlLk6GJQsqaUBKTNV-1" target="SdJrZux0mWgbVIu5cbB4-49">
          <mxGeometry width="160" relative="1" as="geometry">
            <mxPoint x="480" y="810" as="sourcePoint" />
            <mxPoint x="520" y="750" as="targetPoint" />
            <Array as="points">
              <mxPoint x="478" y="890" />
              <mxPoint x="520" y="890" />
            </Array>
          </mxGeometry>
        </mxCell>
        <mxCell id="SdJrZux0mWgbVIu5cbB4-119" value="" style="endArrow=block;dashed=1;endFill=0;endSize=12;html=1;rounded=0;" edge="1" parent="WIyWlLk6GJQsqaUBKTNV-1" source="SdJrZux0mWgbVIu5cbB4-37" target="SdJrZux0mWgbVIu5cbB4-46">
          <mxGeometry width="160" relative="1" as="geometry">
            <mxPoint x="360" y="750" as="sourcePoint" />
            <mxPoint x="520" y="750" as="targetPoint" />
            <Array as="points">
              <mxPoint x="420" y="900" />
              <mxPoint x="300" y="900" />
              <mxPoint x="240" y="900" />
              <mxPoint x="240" y="990" />
            </Array>
          </mxGeometry>
        </mxCell>
        <mxCell id="SdJrZux0mWgbVIu5cbB4-120" value="" style="endArrow=block;dashed=1;endFill=0;endSize=12;html=1;rounded=0;exitX=0;exitY=1.233;exitDx=0;exitDy=0;exitPerimeter=0;entryX=0.5;entryY=0;entryDx=0;entryDy=0;" edge="1" parent="WIyWlLk6GJQsqaUBKTNV-1" source="SdJrZux0mWgbVIu5cbB4-40" target="SdJrZux0mWgbVIu5cbB4-48">
          <mxGeometry width="160" relative="1" as="geometry">
            <mxPoint x="390" y="630" as="sourcePoint" />
            <mxPoint x="263" y="940" as="targetPoint" />
            <Array as="points">
              <mxPoint x="350" y="890" />
              <mxPoint x="340" y="890" />
            </Array>
          </mxGeometry>
        </mxCell>
        <mxCell id="SdJrZux0mWgbVIu5cbB4-121" value="" style="endArrow=block;dashed=1;endFill=0;endSize=12;html=1;rounded=0;" edge="1" parent="WIyWlLk6GJQsqaUBKTNV-1" source="SdJrZux0mWgbVIu5cbB4-37" target="SdJrZux0mWgbVIu5cbB4-44">
          <mxGeometry width="160" relative="1" as="geometry">
            <mxPoint x="373" y="625" as="sourcePoint" />
            <mxPoint x="206" y="880" as="targetPoint" />
            <Array as="points">
              <mxPoint x="420" y="880" />
              <mxPoint x="310" y="880" />
            </Array>
          </mxGeometry>
        </mxCell>
        <mxCell id="SdJrZux0mWgbVIu5cbB4-122" value="" style="endArrow=block;dashed=1;endFill=0;endSize=12;html=1;rounded=0;" edge="1" parent="WIyWlLk6GJQsqaUBKTNV-1" source="SdJrZux0mWgbVIu5cbB4-37" target="SdJrZux0mWgbVIu5cbB4-41">
          <mxGeometry width="160" relative="1" as="geometry">
            <mxPoint x="400" y="570" as="sourcePoint" />
            <mxPoint x="127" y="769" as="targetPoint" />
            <Array as="points">
              <mxPoint x="280" y="760" />
              <mxPoint x="280" y="810" />
              <mxPoint x="230" y="810" />
            </Array>
          </mxGeometry>
        </mxCell>
        <mxCell id="SdJrZux0mWgbVIu5cbB4-123" value="" style="endArrow=block;dashed=1;endFill=0;endSize=12;html=1;rounded=0;" edge="1" parent="WIyWlLk6GJQsqaUBKTNV-1" source="SdJrZux0mWgbVIu5cbB4-37" target="SdJrZux0mWgbVIu5cbB4-81">
          <mxGeometry width="160" relative="1" as="geometry">
            <mxPoint x="446" y="536" as="sourcePoint" />
            <mxPoint x="190" y="670" as="targetPoint" />
            <Array as="points">
              <mxPoint x="420" y="670" />
              <mxPoint x="270" y="670" />
            </Array>
          </mxGeometry>
        </mxCell>
        <mxCell id="SdJrZux0mWgbVIu5cbB4-124" value="" style="endArrow=block;dashed=1;endFill=0;endSize=12;html=1;rounded=0;exitX=0.5;exitY=0;exitDx=0;exitDy=0;" edge="1" parent="WIyWlLk6GJQsqaUBKTNV-1" source="SdJrZux0mWgbVIu5cbB4-37" target="SdJrZux0mWgbVIu5cbB4-85">
          <mxGeometry width="160" relative="1" as="geometry">
            <mxPoint x="220" y="600" as="sourcePoint" />
            <mxPoint x="380" y="600" as="targetPoint" />
            <Array as="points">
              <mxPoint x="530" y="700" />
            </Array>
          </mxGeometry>
        </mxCell>
        <mxCell id="SdJrZux0mWgbVIu5cbB4-125" value="" style="endArrow=none;html=1;edgeStyle=orthogonalEdgeStyle;rounded=0;" edge="1" parent="WIyWlLk6GJQsqaUBKTNV-1" source="SdJrZux0mWgbVIu5cbB4-100" target="SdJrZux0mWgbVIu5cbB4-37">
          <mxGeometry relative="1" as="geometry">
            <mxPoint x="360" y="550" as="sourcePoint" />
            <mxPoint x="520" y="550" as="targetPoint" />
          </mxGeometry>
        </mxCell>
        <mxCell id="SdJrZux0mWgbVIu5cbB4-126" value="parent" style="edgeLabel;resizable=0;html=1;align=left;verticalAlign=bottom;" connectable="0" vertex="1" parent="SdJrZux0mWgbVIu5cbB4-125">
          <mxGeometry x="-1" relative="1" as="geometry" />
        </mxCell>
        <mxCell id="SdJrZux0mWgbVIu5cbB4-127" value="child" style="edgeLabel;resizable=0;html=1;align=right;verticalAlign=bottom;" connectable="0" vertex="1" parent="SdJrZux0mWgbVIu5cbB4-125">
          <mxGeometry x="1" relative="1" as="geometry" />
        </mxCell>
        <mxCell id="SdJrZux0mWgbVIu5cbB4-128" value="CommandParser" style="swimlane;fontStyle=1;align=center;verticalAlign=top;childLayout=stackLayout;horizontal=1;startSize=26;horizontalStack=0;resizeParent=1;resizeParentMax=0;resizeLast=0;collapsible=1;marginBottom=0;whiteSpace=wrap;html=1;" vertex="1" parent="WIyWlLk6GJQsqaUBKTNV-1">
          <mxGeometry x="40" y="364" width="160" height="86" as="geometry" />
        </mxCell>
        <mxCell id="SdJrZux0mWgbVIu5cbB4-129" value="+ field: type" style="text;strokeColor=none;fillColor=none;align=left;verticalAlign=top;spacingLeft=4;spacingRight=4;overflow=hidden;rotatable=0;points=[[0,0.5],[1,0.5]];portConstraint=eastwest;whiteSpace=wrap;html=1;" vertex="1" parent="SdJrZux0mWgbVIu5cbB4-128">
          <mxGeometry y="26" width="160" height="26" as="geometry" />
        </mxCell>
        <mxCell id="SdJrZux0mWgbVIu5cbB4-130" value="" style="line;strokeWidth=1;fillColor=none;align=left;verticalAlign=middle;spacingTop=-1;spacingLeft=3;spacingRight=3;rotatable=0;labelPosition=right;points=[];portConstraint=eastwest;strokeColor=inherit;" vertex="1" parent="SdJrZux0mWgbVIu5cbB4-128">
          <mxGeometry y="52" width="160" height="8" as="geometry" />
        </mxCell>
        <mxCell id="SdJrZux0mWgbVIu5cbB4-131" value="+ method(type): type" style="text;strokeColor=none;fillColor=none;align=left;verticalAlign=top;spacingLeft=4;spacingRight=4;overflow=hidden;rotatable=0;points=[[0,0.5],[1,0.5]];portConstraint=eastwest;whiteSpace=wrap;html=1;" vertex="1" parent="SdJrZux0mWgbVIu5cbB4-128">
          <mxGeometry y="60" width="160" height="26" as="geometry" />
        </mxCell>
        <mxCell id="SdJrZux0mWgbVIu5cbB4-132" value="" style="endArrow=none;html=1;edgeStyle=orthogonalEdgeStyle;rounded=0;entryX=0.464;entryY=0.111;entryDx=0;entryDy=0;entryPerimeter=0;" edge="1" parent="WIyWlLk6GJQsqaUBKTNV-1" source="SdJrZux0mWgbVIu5cbB4-128" target="SdJrZux0mWgbVIu5cbB4-100">
          <mxGeometry relative="1" as="geometry">
            <mxPoint x="130" y="260" as="sourcePoint" />
            <mxPoint x="240" y="280" as="targetPoint" />
          </mxGeometry>
        </mxCell>
        <mxCell id="SdJrZux0mWgbVIu5cbB4-133" value="parent" style="edgeLabel;resizable=0;html=1;align=left;verticalAlign=bottom;" connectable="0" vertex="1" parent="SdJrZux0mWgbVIu5cbB4-132">
          <mxGeometry x="-1" relative="1" as="geometry">
            <mxPoint y="24" as="offset" />
          </mxGeometry>
        </mxCell>
        <mxCell id="SdJrZux0mWgbVIu5cbB4-134" value="child" style="edgeLabel;resizable=0;html=1;align=right;verticalAlign=bottom;" connectable="0" vertex="1" parent="SdJrZux0mWgbVIu5cbB4-132">
          <mxGeometry x="1" relative="1" as="geometry">
            <mxPoint x="-10" y="-10" as="offset" />
          </mxGeometry>
        </mxCell>
        <mxCell id="SdJrZux0mWgbVIu5cbB4-136" value="1" style="endArrow=open;html=1;endSize=12;startArrow=diamondThin;startSize=14;startFill=1;edgeStyle=orthogonalEdgeStyle;align=left;verticalAlign=bottom;rounded=0;entryX=0.5;entryY=0;entryDx=0;entryDy=0;" edge="1" parent="WIyWlLk6GJQsqaUBKTNV-1" source="SdJrZux0mWgbVIu5cbB4-55" target="SdJrZux0mWgbVIu5cbB4-128">
          <mxGeometry x="-1" y="3" relative="1" as="geometry">
            <mxPoint x="104.75" y="-40" as="sourcePoint" />
            <mxPoint x="134.75" y="124.5" as="targetPoint" />
            <Array as="points">
              <mxPoint x="120" y="340" />
            </Array>
          </mxGeometry>
        </mxCell>
        <mxCell id="SdJrZux0mWgbVIu5cbB4-138" value="1" style="endArrow=open;html=1;endSize=12;startArrow=diamondThin;startSize=14;startFill=1;edgeStyle=orthogonalEdgeStyle;align=left;verticalAlign=bottom;rounded=0;entryX=0.428;entryY=0.036;entryDx=0;entryDy=0;entryPerimeter=0;" edge="1" parent="WIyWlLk6GJQsqaUBKTNV-1" source="SdJrZux0mWgbVIu5cbB4-51" target="SdJrZux0mWgbVIu5cbB4-63">
          <mxGeometry x="-1" y="3" relative="1" as="geometry">
            <mxPoint x="230" y="-380" as="sourcePoint" />
            <mxPoint x="390" y="-380" as="targetPoint" />
            <Array as="points">
              <mxPoint x="390" y="-420" />
              <mxPoint x="520" y="-420" />
            </Array>
          </mxGeometry>
        </mxCell>
        <mxCell id="SdJrZux0mWgbVIu5cbB4-142" value="1" style="endArrow=open;html=1;endSize=12;startArrow=diamondThin;startSize=14;startFill=0;edgeStyle=orthogonalEdgeStyle;align=left;verticalAlign=bottom;rounded=0;entryX=0.5;entryY=0;entryDx=0;entryDy=0;" edge="1" parent="WIyWlLk6GJQsqaUBKTNV-1" source="SdJrZux0mWgbVIu5cbB4-59" target="SdJrZux0mWgbVIu5cbB4-16">
          <mxGeometry x="-1" y="3" relative="1" as="geometry">
            <mxPoint x="-120" as="sourcePoint" />
            <mxPoint x="30" y="140" as="targetPoint" />
            <Array as="points">
              <mxPoint x="-60" />
              <mxPoint x="330" />
              <mxPoint x="330" y="140" />
            </Array>
          </mxGeometry>
        </mxCell>
        <mxCell id="SdJrZux0mWgbVIu5cbB4-144" value="1" style="endArrow=open;html=1;endSize=12;startArrow=diamondThin;startSize=14;startFill=0;edgeStyle=orthogonalEdgeStyle;align=left;verticalAlign=bottom;rounded=0;" edge="1" parent="WIyWlLk6GJQsqaUBKTNV-1" source="SdJrZux0mWgbVIu5cbB4-59" target="SdJrZux0mWgbVIu5cbB4-22">
          <mxGeometry x="-1" y="3" relative="1" as="geometry">
            <mxPoint x="490" y="40" as="sourcePoint" />
            <mxPoint x="650" y="40" as="targetPoint" />
            <Array as="points">
              <mxPoint x="-60" />
              <mxPoint x="660" />
            </Array>
          </mxGeometry>
        </mxCell>
        <mxCell id="SdJrZux0mWgbVIu5cbB4-145" value="" style="endArrow=none;html=1;edgeStyle=orthogonalEdgeStyle;rounded=0;" edge="1" parent="WIyWlLk6GJQsqaUBKTNV-1" source="SdJrZux0mWgbVIu5cbB4-67" target="SdJrZux0mWgbVIu5cbB4-71">
          <mxGeometry relative="1" as="geometry">
            <mxPoint x="600" y="-110" as="sourcePoint" />
            <mxPoint x="760" y="-110" as="targetPoint" />
          </mxGeometry>
        </mxCell>
        <mxCell id="SdJrZux0mWgbVIu5cbB4-146" value="parent" style="edgeLabel;resizable=0;html=1;align=left;verticalAlign=bottom;" connectable="0" vertex="1" parent="SdJrZux0mWgbVIu5cbB4-145">
          <mxGeometry x="-1" relative="1" as="geometry" />
        </mxCell>
        <mxCell id="SdJrZux0mWgbVIu5cbB4-147" value="child" style="edgeLabel;resizable=0;html=1;align=right;verticalAlign=bottom;" connectable="0" vertex="1" parent="SdJrZux0mWgbVIu5cbB4-145">
          <mxGeometry x="1" relative="1" as="geometry" />
        </mxCell>
        <mxCell id="SdJrZux0mWgbVIu5cbB4-148" value="" style="endArrow=none;html=1;edgeStyle=orthogonalEdgeStyle;rounded=0;" edge="1" parent="WIyWlLk6GJQsqaUBKTNV-1" source="SdJrZux0mWgbVIu5cbB4-63" target="SdJrZux0mWgbVIu5cbB4-67">
          <mxGeometry relative="1" as="geometry">
            <mxPoint x="500" y="-270.71" as="sourcePoint" />
            <mxPoint x="660" y="-270.71" as="targetPoint" />
          </mxGeometry>
        </mxCell>
        <mxCell id="SdJrZux0mWgbVIu5cbB4-149" value="parent" style="edgeLabel;resizable=0;html=1;align=left;verticalAlign=bottom;" connectable="0" vertex="1" parent="SdJrZux0mWgbVIu5cbB4-148">
          <mxGeometry x="-1" relative="1" as="geometry" />
        </mxCell>
        <mxCell id="SdJrZux0mWgbVIu5cbB4-150" value="child" style="edgeLabel;resizable=0;html=1;align=right;verticalAlign=bottom;" connectable="0" vertex="1" parent="SdJrZux0mWgbVIu5cbB4-148">
          <mxGeometry x="1" relative="1" as="geometry" />
        </mxCell>
        <mxCell id="SdJrZux0mWgbVIu5cbB4-151" value="" style="endArrow=none;html=1;edgeStyle=orthogonalEdgeStyle;rounded=0;" edge="1" parent="WIyWlLk6GJQsqaUBKTNV-1" source="SdJrZux0mWgbVIu5cbB4-67" target="SdJrZux0mWgbVIu5cbB4-75">
          <mxGeometry relative="1" as="geometry">
            <mxPoint x="240" y="-230.71" as="sourcePoint" />
            <mxPoint x="400" y="-230.71" as="targetPoint" />
          </mxGeometry>
        </mxCell>
        <mxCell id="SdJrZux0mWgbVIu5cbB4-152" value="parent" style="edgeLabel;resizable=0;html=1;align=left;verticalAlign=bottom;" connectable="0" vertex="1" parent="SdJrZux0mWgbVIu5cbB4-151">
          <mxGeometry x="-1" relative="1" as="geometry" />
        </mxCell>
        <mxCell id="SdJrZux0mWgbVIu5cbB4-153" value="child" style="edgeLabel;resizable=0;html=1;align=right;verticalAlign=bottom;" connectable="0" vertex="1" parent="SdJrZux0mWgbVIu5cbB4-151">
          <mxGeometry x="1" relative="1" as="geometry" />
        </mxCell>
      </root>
    </mxGraphModel>
  </diagram>
</mxfile>
